<svg xmlns="http://www.w3.org/2000/svg"  viewBox="0 0 262 262" >
<style type="text/css">
	.st0{fill:#FFFFFF;}
	.st1{fill:#BFBFBF;}
</style>
<path class="st0" d="M246,262H16c-8.9,0-16-7.2-16-16V16C0,7.2,7.2,0,16,0H246c8.9,0,16,7.2,16,16V246C262,254.8,254.8,262,246,262
		z"/>
<path class="st1" d="M191.3,62.2H69.9c-8.8,0-16,7.2-16,16v98.3c0,8.8,7.2,16,16,16h121.3c8.8,0,16-7.2,16-16V78.2
	C207.3,69.4,200.1,62.2,191.3,62.2z M69.9,71.2h121.3c3.9,0,7,3.2,7,7v96.5L161,131.5c-2.4-2.7-6.6-2.7-8.9,0l-4.5,5.2
	c-2.4,2.7-6.6,2.7-8.9,0L120.7,116c-2.4-2.7-6.6-2.7-8.9,0l-48.9,56.5V78.2C62.9,74.3,66.1,71.2,69.9,71.2z"/>
<circle class="st1" cx="167" cy="102.9" r="13.9"/>
</svg>