<svg xmlns="http://www.w3.org/2000/svg" viewBox="0 0 396.9 396.9">
   <path fill="#B1B1B1" d="M29.1,359.6c7.3-94.1,37.3-70.1,106.8-113.6c21.5,44.8,108.7,48.1,126.6,0c60,38.4,105.7,16.7,105.2,113.6
	l0,37.2H29.1V359.6z M152.3,242.5c-0.9-1.2,2.4-9.5,3.2-10.8c-9.1-8.1-16.3-16.2-17.8-33l-1,0c-2.2,0-4.4-0.5-6.4-1.7
	c-3.3-1.9-5.5-5-7.1-8.6c-3.3-7.5-14-32.5,2.4-30.5c-9.2-17.1,11.6-46.4-24.2-57.2c29.4-37.2,91.4-94.6,136.8-37
	c49.7,4.8,65.3,63.9,31.8,96.3c2,0.1,3.8,0.5,5.4,1.4c6.2,3.3,6.4,10.6,4.8,16.6c-1.6,5.1-3.7,8.5-5.6,13.4
	c-2.4,6.7-5.8,7.9-12.5,7.2c-0.3,16.5-8,24.6-18.2,34.3l2.8,9.5C232.9,271.7,175.7,272.8,152.3,242.5L152.3,242.5z"/>
</svg>