<svg xmlns="http://www.w3.org/2000/svg"  viewBox="0 0 20 20" >
<path d="M18,10.5C18,10.5,18,10.5,18,10.5L18,9c0-4.1-3-7.5-7-7.9V0H9v1C5,1.5,2,4.9,2,9v1.5c0,0,0,0,0,0l-1.5,1.2
	C0.2,11.9,0,12.2,0,12.5v2.2C0,15.4,0.6,16,1.2,16H6c0,0,0,0,0,0c0,2.4,1.6,4,4,4s4-1.6,4-4c0,0,0,0,0,0h4.7c0.7,0,1.2-0.6,1.2-1.2
	v-2.2c0-0.3-0.2-0.7-0.4-0.9L18,10.5z M10,18c-1.7,0-2-1.2-2-2c0,0,0,0,0.1,0h3.9c0,0,0.1,0,0.1,0C12,16.8,11.7,18,10,18z M18,14h-4
	H6H2v-1l1.6-1.6C3.8,11.2,4,10.8,4,10.4l0-1.1C4,6.2,6.2,3.4,9.2,3C12.9,2.6,16,5.4,16,9v1.4c0,0.4,0.2,0.8,0.4,1.1L18,13V14z"/>
</svg>
